<mxfile host="app.diagrams.net" modified="2024-01-06T14:02:23.817Z" agent="Mozilla/5.0 (Windows NT 10.0; Win64; x64) AppleWebKit/537.36 (KHTML, like Gecko) Chrome/118.0.0.0 Safari/537.36" version="22.1.16" etag="-IyuLT-bp3r9GtNgws_s" type="github">
  <diagram name="Trang-1" id="kSoTYnSQtqfJ8kYPhZa7">
    <mxGraphModel>
      <root>
        <mxCell id="0" />
        <mxCell id="1" parent="0" />
      </root>
    </mxGraphModel>
  </diagram>
</mxfile>
